<?xml version="1.0" encoding="utf-8"?>
<!-- Generator: Adobe Illustrator 19.0.0, SVG Export Plug-In . SVG Version: 6.00 Build 0)  -->
<svg version="1.1" id="Capa_1" xmlns="http://www.w3.org/2000/svg" xmlns:xlink="http://www.w3.org/1999/xlink" x="0px" y="0px"
	 viewBox="0 0 99.3 34.2" style="enable-background:new 0 0 99.3 34.2;" xml:space="preserve">
<style type="text/css">
	.st0{fill:#010202;}
	.st1{fill:#161617;}
</style>
<g>
	<g>
		<path class="st0" d="M22.6,34.2c-0.1,0-0.1,0-0.2-0.1c-0.1-0.1-0.1-0.1-0.1-0.2v-6.2c0-0.1,0-0.1,0.1-0.2c0.1-0.1,0.1-0.1,0.2-0.1
			l3.8,0c0.1,0,0.1,0,0.2,0.1c0.1,0.1,0.1,0.1,0.1,0.2c0,0.1,0,0.1-0.1,0.2c-0.1,0.1-0.1,0.1-0.2,0.1l-3.5,0v2.6h2.6
			c0.1,0,0.1,0,0.2,0.1c0.1,0.1,0.1,0.1,0.1,0.2s0,0.1-0.1,0.2C25.6,31,25.5,31,25.5,31h-2.6v2.6h3.5c0.1,0,0.1,0,0.2,0.1
			c0.1,0.1,0.1,0.1,0.1,0.2c0,0.1,0,0.1-0.1,0.2c-0.1,0.1-0.1,0.1-0.2,0.1H22.6z"/>
		<path class="st0" d="M34.9,34.1L34.9,34.1L34.9,34.1l-4.3-5.6v5.4c0,0.1,0,0.1-0.1,0.2c-0.1,0.1-0.1,0.1-0.2,0.1s-0.1,0-0.2-0.1
			C30,34,30,34,30,33.9v-6.2c0-0.1,0.1-0.2,0.2-0.3c0.1,0,0.2,0,0.3,0.1l4.3,5.6v-5.4c0-0.1,0-0.1,0.1-0.2c0.1-0.1,0.1-0.1,0.2-0.1
			c0.1,0,0.1,0,0.2,0.1c0.1,0.1,0.1,0.1,0.1,0.2v6.2c0,0,0,0,0,0c0,0,0,0,0,0c0,0,0,0,0,0c0,0,0,0,0,0c0,0,0,0,0,0c0,0,0,0,0,0
			c0,0,0,0,0,0s0,0,0,0c0,0,0,0,0,0c0,0,0,0,0,0c0,0,0,0,0,0c0,0,0,0,0,0c0,0,0,0,0,0c0,0,0,0,0,0c0,0,0,0,0,0c0,0,0,0,0,0
			c0,0,0,0-0.1,0c0,0,0,0-0.1,0l0,0C35,34.1,35,34.1,34.9,34.1C35,34.1,35,34.1,34.9,34.1C35,34.1,34.9,34.1,34.9,34.1
			C34.9,34.1,34.9,34.1,34.9,34.1C34.9,34.1,34.9,34.1,34.9,34.1C34.9,34.1,34.9,34.1,34.9,34.1z"/>
		<path class="st0" d="M45,27.9h-1.9c-0.1,0-0.1,0-0.2-0.1c-0.1-0.1-0.1-0.1-0.1-0.2s0-0.1,0.1-0.2c0.1-0.1,0.1-0.1,0.2-0.1h4.3
			c0.1,0,0.1,0,0.2,0.1c0.1,0.1,0.1,0.1,0.1,0.2s0,0.1-0.1,0.2c-0.1,0.1-0.1,0.1-0.2,0.1h-1.9v6c0,0.1,0,0.1-0.1,0.2
			c-0.1,0.1-0.1,0.1-0.2,0.1c-0.1,0-0.1,0-0.2-0.1C45,34,45,34,45,33.9V27.9z"/>
		<path class="st0" d="M53.7,34.2c-0.9,0-1.7-0.3-2.4-1c-0.7-0.7-1-1.5-1-2.4c0-0.9,0.3-1.7,1-2.4c0.7-0.7,1.5-1,2.4-1
			c0.9,0,1.7,0.3,2.4,1c0.7,0.7,1,1.5,1,2.4c0,0.9-0.3,1.7-1,2.4C55.4,33.8,54.6,34.2,53.7,34.2z M53.7,27.9c-0.8,0-1.4,0.3-2,0.8
			c-0.6,0.6-0.8,1.2-0.8,2s0.3,1.4,0.8,2c0.6,0.6,1.2,0.8,2,0.8c0.8,0,1.4-0.3,2-0.8c0.6-0.6,0.8-1.2,0.8-2s-0.3-1.4-0.8-2
			C55.1,28.2,54.4,27.9,53.7,27.9z"/>
		<path class="st0" d="M60.9,34.1c-0.1,0-0.1,0-0.2-0.1c-0.1-0.1-0.1-0.1-0.1-0.2v-6.2c0-0.1,0-0.1,0.1-0.2c0.1-0.1,0.1-0.1,0.2-0.1
			c0.1,0,0.1,0,0.2,0.1c0.1,0.1,0.1,0.1,0.1,0.2v3.6l3.6-3.7c0.1-0.1,0.1-0.1,0.2-0.1c0.1,0,0.1,0,0.2,0.1c0.1,0.1,0.1,0.1,0.1,0.2
			c0,0.1,0,0.1-0.1,0.2l-2.7,2.9l2.8,3c0.1,0.1,0.1,0.1,0.1,0.2c0,0.1,0,0.1-0.1,0.2c-0.1,0.1-0.1,0.1-0.2,0.1c-0.1,0-0.1,0-0.2-0.1
			l-2.8-3L61.2,32v1.8c0,0.1,0,0.1-0.1,0.2C61,34.1,61,34.1,60.9,34.1z"/>
		<path class="st0" d="M69.2,33.9c0,0.1,0,0.1-0.1,0.2c-0.1,0.1-0.1,0.1-0.2,0.1c-0.1,0-0.1,0-0.2-0.1c-0.1-0.1-0.1-0.1-0.1-0.2
			v-6.2c0-0.1,0-0.1,0.1-0.2c0.1-0.1,0.1-0.1,0.2-0.1c0.1,0,0.1,0,0.2,0.1c0.1,0.1,0.1,0.1,0.1,0.2V33.9z"/>
		<path class="st0" d="M76,34.2c-0.9,0-1.7-0.3-2.4-1c-0.7-0.7-1-1.5-1-2.4c0-0.9,0.3-1.7,1-2.4c0.7-0.7,1.5-1,2.4-1
			c0.9,0,1.7,0.3,2.4,1c0.7,0.7,1,1.5,1,2.4c0,0.9-0.3,1.7-1,2.4C77.7,33.8,76.9,34.2,76,34.2z M76,27.9c-0.8,0-1.4,0.3-2,0.8
			c-0.6,0.6-0.8,1.2-0.8,2s0.3,1.4,0.8,2c0.6,0.6,1.2,0.8,2,0.8c0.8,0,1.4-0.3,2-0.8c0.6-0.6,0.8-1.2,0.8-2s-0.3-1.4-0.8-2
			C77.4,28.2,76.8,27.9,76,27.9z"/>
	</g>
	<path class="st1" d="M75.5,0c-0.4,0-0.9,0.1-1.3,0.3c-0.3,0.1-0.6,0.3-1,0.4c-0.3,0.1-0.6,0.3-0.9,0.5c-0.6,0.4-1.2,0.9-1.7,1.5
		c-0.4,0.5-0.8,1-1.2,1.6c0-0.4,0-0.9,0-1.3c0-0.2,0-0.5,0-0.7c0-0.2,0-0.4-0.1-0.6c0-0.1,0-0.3-0.1-0.4c-0.1-0.2-0.2-0.4-0.3-0.5
		c0,0-0.1-0.1-0.1-0.1c-0.1-0.1-0.2-0.2-0.4-0.2c-0.2-0.1-0.4-0.1-0.6,0c-0.1,0-0.2,0.1-0.3,0.1c-0.1,0-0.2,0.1-0.2,0.2
		c-0.4,0.3-0.8,0.7-1.2,1c-0.4,0.3-0.8,0.7-1.2,1c-0.3,0.3-0.7,0.6-1,0.9c-0.3,0.2-0.6,0.4-0.8,0.7C62.8,4.7,62.4,5,62,5.2
		c-0.3,0.2-0.5,0.3-0.8,0.5c-0.4,0.2-0.8,0.4-1.1,0.6c0-0.1,0-0.1,0-0.2c-0.1-0.4-0.2-0.7-0.3-1c-0.1-0.3-0.3-0.6-0.5-0.9
		c-0.2-0.3-0.4-0.5-0.6-0.8c-0.3-0.3-0.6-0.5-0.9-0.7c-0.3-0.2-0.6-0.4-1-0.5C56.4,2,56,2,55.7,2c-0.4,0-0.8,0-1.1,0.1
		c-0.2,0-0.3,0.1-0.5,0.2c-0.1,0-0.2,0.1-0.4,0.2c-0.1,0.1-0.2,0.1-0.3,0.2c-0.1,0.1-0.3,0.2-0.4,0.4c-0.1,0.1-0.2,0.3-0.3,0.4
		c-0.1,0.1-0.2,0.3-0.2,0.5c-0.1,0.1-0.1,0.3-0.1,0.4c-0.2,0.8,0.1,1.6,0.5,2.3C53,6.8,53.2,7,53.4,7.2c0.2,0.3,0.5,0.5,0.8,0.7
		c0.3,0.2,0.6,0.3,1,0.5c0.3,0.1,0.6,0.2,1,0.3c0.7,0.2,1.3,0.2,2,0.2c0.1,0,0.2,0,0.3,0c0,0,0,0.1,0,0.1c-0.1,0.9-0.4,1.8-0.7,2.7
		c-0.1,0.3-0.2,0.5-0.4,0.8c-0.1,0.2-0.3,0.5-0.5,0.7c-0.2,0.3-0.4,0.5-0.7,0.7c-0.2,0.2-0.4,0.3-0.7,0.4c-0.3,0.1-0.7,0.2-1,0.3
		c-0.2,0-0.4,0-0.6,0c-0.2,0-0.4-0.1-0.6-0.2c-0.1,0-0.2-0.1-0.3-0.2c-0.1-0.1-0.3-0.3-0.4-0.4c-0.4-0.5-0.7-1.1-1-1.7
		c-0.1-0.2-0.2-0.4-0.3-0.5c-0.1-0.2-0.2-0.3-0.3-0.4c-0.1-0.1-0.3-0.2-0.4-0.4c0,0-0.1,0-0.1,0c-0.1-0.1-0.2-0.1-0.3-0.1
		c-0.2,0-0.4-0.1-0.6,0c-0.2,0-0.3,0.1-0.5,0.2c0,0-0.1,0.1-0.1,0.1c-0.1,0.1-0.1,0.1-0.2,0.2c-0.1,0.1-0.2,0.1-0.3,0.2
		c-0.3,0.2-0.6,0.3-0.8,0.5c-0.1,0-0.2,0.1-0.3,0.1c-0.1,0-0.2,0.1-0.3,0.1c-0.1,0-0.2,0-0.3,0c0,0-0.1,0-0.1,0c0,0-0.1-0.1-0.1-0.1
		c0-0.1-0.1-0.1-0.1-0.2c-0.1-0.1-0.2-0.3-0.2-0.4c-0.2-0.7-0.4-1.4-0.6-2.1c-0.1-0.3-0.2-0.6-0.3-0.9c-0.1-0.2-0.2-0.4-0.3-0.5
		c-0.1-0.1-0.1-0.2-0.2-0.3c-0.1-0.1-0.2-0.1-0.3-0.2C44.2,7.1,44.1,7.1,44,7c-0.1,0-0.2,0-0.4,0c-0.2,0-0.5,0.1-0.7,0.2
		c-0.3,0.2-0.6,0.6-0.8,0.9c-0.9,1.2-1.7,2.4-2.6,3.6c-0.3,0.4-0.7,0.9-1.1,1.2c-0.1,0.1-0.2,0.2-0.4,0.2c-0.1,0-0.1,0-0.2,0.1
		c0,0,0,0-0.1,0c0,0,0,0,0,0c0,0,0-0.1-0.1-0.1c-0.3-1-0.5-2.1-0.7-3.2c-0.1-0.5-0.2-1.1-0.3-1.6C36.5,7.7,36.3,7,36,6.5
		c-0.1-0.2-0.2-0.3-0.3-0.4c-0.1-0.1-0.3-0.2-0.4-0.3c0,0-0.1,0-0.1-0.1c-0.1-0.1-0.2-0.1-0.3-0.1c-0.2,0-0.3,0-0.5,0
		c-0.1,0-0.2,0.1-0.3,0.1c-0.1,0.1-0.3,0.2-0.4,0.3c-0.1,0.1-0.2,0.2-0.4,0.4C33,6.5,32.8,6.8,32.6,7c-0.2,0.2-0.3,0.5-0.5,0.7
		c-0.2,0.2-0.3,0.5-0.5,0.7c-0.1,0.2-0.2,0.4-0.4,0.6c-0.1,0.2-0.2,0.4-0.4,0.6c-0.2,0.3-0.3,0.6-0.5,0.9c-0.2,0.4-0.4,0.9-0.6,1.4
		c-0.1,0.2-0.2,0.4-0.3,0.6c-0.1-0.5-0.2-1-0.3-1.5c0-0.2-0.1-0.5-0.1-0.7C29.1,10,29.1,9.8,29,9.5c-0.2-0.7-0.3-1.4-0.6-2.1
		c-0.1-0.3-0.2-0.6-0.4-0.9C28,6.3,28,6.2,27.9,6.1c-0.1-0.1-0.2-0.3-0.3-0.4c0,0-0.1-0.1-0.1-0.1c-0.1-0.1-0.2-0.2-0.3-0.2
		c-0.1,0-0.1-0.1-0.2-0.1c-0.1,0-0.2,0-0.3,0c-0.4,0-0.8,0.3-1.1,0.5c-0.1,0.1-0.2,0.3-0.3,0.4c-0.1,0.1-0.1,0.2-0.2,0.3
		c-0.1,0.1-0.1,0.2-0.2,0.3c-0.1,0.2-0.2,0.4-0.4,0.6c-0.2,0.4-0.5,0.9-0.7,1.3c-0.3,0.5-0.5,1.1-0.8,1.6c-0.2,0.4-0.4,0.8-0.5,1.2
		c-0.1,0.3-0.3,0.6-0.4,0.9c-0.4,0.8-0.7,1.6-1.1,2.4c-0.4,0.8-0.7,1.6-1.1,2.5c-0.7,1.6-1.4,3.1-2.4,4.5c-0.3,0.4-0.6,0.7-1,1.1
		c-0.2,0.2-0.4,0.3-0.7,0.4c-0.2,0.1-0.4,0.1-0.5,0.1c-0.2,0-0.3,0-0.5,0c-0.1,0-0.2,0-0.3-0.1c-0.2-0.1-0.3-0.2-0.5-0.3
		c-0.1-0.1-0.2-0.2-0.4-0.3c-0.1-0.1-0.2-0.2-0.3-0.3c-0.6-0.8-1.1-1.8-1.5-2.8c-0.2-0.6-0.5-1.2-0.7-1.8c-0.1-0.3-0.2-0.7-0.3-1
		c-0.1-0.6-0.3-1.2-0.4-1.8c-0.1-0.3-0.2-0.7-0.2-1c-0.1-0.6-0.2-1.2-0.3-1.8c-0.1-0.4-0.1-0.7-0.2-1.1C9.4,10.6,9.3,10,9.2,9.5
		C9.1,8.6,9,7.8,8.8,7c0-0.3,0-0.6-0.2-0.8C8.6,6,8.5,5.9,8.3,5.8C8.2,5.7,8.1,5.7,7.9,5.7C7.9,5.4,7.7,5.3,7.4,5.2
		C7.1,5.1,6.8,5.1,6.5,5.1c-0.2,0-0.3,0-0.5,0c-0.2,0-0.3,0.1-0.5,0.1C5.4,5.3,5.2,5.3,5,5.4C4.9,5.5,4.7,5.5,4.6,5.6
		c-0.4,0.2-0.7,0.5-1,0.7c-0.5,0.5-0.9,1-1.3,1.6c-0.4,0.6-0.8,1.3-1.1,2c-0.3,0.7-0.5,1.4-0.7,2.1c-0.2,0.8-0.3,1.6-0.4,2.4
		C0,15.2,0,15.9,0,16.6c0,0.7,0.1,1.5,0.4,2.2c0.2,0.6,0.5,1.2,0.9,1.8c0.2,0.3,0.4,0.6,0.8,0.8c0.2,0.1,0.3,0.2,0.5,0.3
		c0.2,0.1,0.5,0.1,0.7,0.1c0.8,0,1.4-0.5,1.9-1c0.1-0.1,0.2-0.3,0.4-0.4c0.1-0.1,0.2-0.3,0.3-0.5c0.2-0.4,0.4-0.8,0.6-1.2
		c0.4-1,0.7-2,1-3c0.1-0.5,0.3-1,0.4-1.5c0.1-0.4,0.2-0.8,0.2-1.3c0,0.2,0.1,0.4,0.1,0.6c0.1,0.4,0.2,0.9,0.3,1.3
		c0.2,0.7,0.3,1.3,0.5,2C8.9,16.9,9,17.1,9,17.4c0,0.2,0.1,0.4,0.2,0.6c0.1,0.4,0.3,0.8,0.4,1.3c0.2,0.7,0.5,1.4,0.8,2
		c0.3,0.7,0.7,1.4,1.2,2c0.2,0.3,0.4,0.6,0.7,0.8c0.2,0.3,0.5,0.5,0.8,0.7c0.3,0.2,0.6,0.4,1,0.5c0.2,0.1,0.4,0.1,0.6,0.1
		c0.2,0,0.5,0,0.7,0c0.7-0.1,1.3-0.3,1.9-0.7c0.3-0.2,0.6-0.4,0.8-0.7c0.3-0.3,0.5-0.6,0.8-0.9c1.3-1.7,2.1-3.6,3-5.6
		c0.4-1,0.9-2,1.3-3.1c0.2-0.4,0.4-0.8,0.5-1.2c0.3-0.6,0.6-1.2,0.8-1.8c0.1-0.3,0.3-0.6,0.5-0.9c0.2-0.3,0.3-0.7,0.5-1
		c0.2-0.4,0.4-0.8,0.6-1.2c0.1-0.2,0.2-0.4,0.3-0.6c0-0.1,0.1-0.1,0.1-0.2c0.1,0.4,0.3,0.8,0.4,1.2c0.1,0.3,0.2,0.7,0.3,1
		c0.1,0.5,0.2,1.1,0.3,1.6c0.2,1,0.4,2,0.5,2.9c0,0.2,0.1,0.3,0.1,0.5c0,0.2,0.1,0.3,0.1,0.5c0,0,0,0.1,0.1,0.1
		c0.1,0.1,0.2,0.2,0.3,0.3c0.1,0.1,0.2,0.1,0.4,0.2c0.2,0,0.5,0,0.7-0.1c0,0,0.1,0,0.1-0.1c0.1-0.1,0.2-0.2,0.3-0.3
		c0.1-0.1,0.1-0.2,0.2-0.3c0.1-0.2,0.2-0.4,0.3-0.6c0.2-0.5,0.5-1.1,0.7-1.6c0.2-0.5,0.4-0.9,0.7-1.4c0.1-0.3,0.3-0.6,0.4-0.8
		c0.1-0.2,0.3-0.5,0.4-0.7c0.4-0.7,0.9-1.3,1.3-1.9c0.1-0.1,0.2-0.2,0.3-0.3c0,0.1,0.1,0.1,0.1,0.2c0.4,1.1,0.6,2.4,0.8,3.6
		c0.1,0.5,0.2,1,0.3,1.6c0.1,0.3,0.1,0.5,0.2,0.8c0.1,0.2,0.1,0.3,0.2,0.5c0,0,0.1,0.1,0.1,0.1c0.1,0.1,0.2,0.2,0.2,0.3
		c0.1,0.1,0.3,0.2,0.4,0.3c0,0,0.1,0,0.1,0.1c0.1,0.1,0.2,0.1,0.3,0.1c0.1,0,0.2,0,0.4,0.1c0.2,0,0.4,0,0.5,0
		c0.3-0.1,0.6-0.2,0.9-0.4c0.2-0.1,0.3-0.2,0.4-0.3c0.1-0.1,0.3-0.2,0.4-0.3c0.2-0.2,0.5-0.5,0.7-0.8c0.5-0.6,1-1.3,1.5-2
		c0.5-0.7,0.9-1.3,1.4-2c0.1,0.4,0.2,0.8,0.3,1.2c0.2,0.7,0.4,1.3,0.7,1.9c0.1,0.2,0.3,0.4,0.5,0.6c0.1,0.1,0.3,0.2,0.4,0.3
		c0,0,0.1,0.1,0.1,0.1c0.1,0.1,0.2,0.1,0.4,0.2c0.3,0.1,0.6,0.1,0.9,0.1c0.2,0,0.4,0,0.6-0.1c0.2,0,0.3-0.1,0.5-0.1
		c0.7-0.2,1.4-0.6,1.9-1.1c0.2,0.3,0.3,0.6,0.5,0.9c0.1,0.3,0.3,0.5,0.4,0.8c0.2,0.3,0.4,0.6,0.6,0.8c0.2,0.3,0.5,0.5,0.7,0.7
		c0.7,0.4,1.4,0.6,2.2,0.6c0.2,0,0.4,0,0.6-0.1c0.2,0,0.3-0.1,0.5-0.1c0.3-0.1,0.7-0.2,1-0.4c0.6-0.3,1.2-0.7,1.7-1.3
		c0.9-1.1,1.5-2.4,1.9-3.8c0.2-0.7,0.3-1.4,0.4-2.1c0-0.1,0-0.2,0-0.3c0.6-0.2,1.1-0.5,1.6-0.8c0.3-0.2,0.6-0.3,0.8-0.5
		c0.2-0.1,0.3-0.2,0.5-0.3c0.3-0.2,0.5-0.4,0.8-0.6c0.4-0.3,0.8-0.6,1.3-1c0.1-0.1,0.3-0.2,0.4-0.4c0.2-0.2,0.4-0.3,0.6-0.5
		c0.5-0.4,1-0.9,1.5-1.3c0,0.4,0,0.8,0,1.3c0,0.5,0,0.9-0.1,1.4c0,1-0.1,1.9-0.2,2.9c-0.1,0.7-0.1,1.5-0.2,2.2
		c0,0.2-0.1,0.4-0.1,0.6c-0.1,0.5-0.2,1-0.2,1.5c0,0.2-0.1,0.5-0.1,0.7c0,0.3,0,0.6,0.1,0.9c0,0.2,0.1,0.3,0.2,0.4
		c0.1,0.1,0.2,0.2,0.4,0.2c0.2,0,0.3,0,0.5,0c0.2-0.1,0.4-0.2,0.5-0.4c0,0,0-0.1,0.1-0.1c0.1-0.1,0.1-0.2,0.1-0.4c0-0.1,0-0.3,0-0.4
		c0-0.1,0-0.3,0-0.4c0-0.3,0-0.5,0.1-0.8c0-0.5,0.1-1,0.1-1.5c0,0,0-0.1,0-0.1c0-0.2,0.1-0.4,0.1-0.6c0.1-0.5,0.2-1,0.4-1.4
		c0.2-0.7,0.4-1.4,0.7-2.1c0.2-0.5,0.4-0.9,0.6-1.3c0.2-0.4,0.5-0.9,0.8-1.3c0.4-0.5,0.9-1,1.4-1.4c0.4-0.3,0.8-0.6,1.3-0.8
		c0.4-0.2,0.8-0.3,1.2-0.3c0.3,0,0.6,0,0.9,0c0.2,0,0.4,0.1,0.6,0.2c0.1,0,0.1,0.1,0.2,0.1c0.1,0.1,0.2,0.2,0.2,0.2
		c0.1,0.1,0.1,0.2,0.2,0.4c0.1,0.2,0.1,0.4,0.1,0.5c0,0.3,0,0.6,0,0.9c-0.1,0.4-0.2,0.9-0.4,1.3C77.3,6,77,6.5,76.6,7
		c-0.3,0.4-0.7,0.8-1,1.1c-0.4,0.4-0.8,0.7-1.3,1.1c-0.2,0.2-0.4,0.3-0.7,0.5c-0.1,0.1-0.2,0.2-0.3,0.2c-0.1,0-0.1,0.1-0.2,0.1
		c-0.1,0-0.3,0.1-0.4,0.1c-0.1,0-0.1,0.1-0.2,0.1c-0.1,0.1-0.2,0.1-0.3,0.2c-0.3,0.3-0.3,0.8-0.1,1.1c0.2,0.4,0.6,0.5,1,0.4
		c0.1,0,0.3-0.1,0.4-0.1c0.1,0,0.2-0.1,0.3-0.1c0,0,0,0,0,0c0.1,0,0.3,0,0.4,0c0.2,0,0.4,0.1,0.6,0.2c0.3,0.2,0.6,0.3,0.9,0.5
		c0.2,0.2,0.4,0.4,0.7,0.6c0.3,0.3,0.5,0.5,0.7,0.8c0.5,0.7,1,1.4,1.4,2.2c0.3,0.4,0.5,0.8,0.8,1.2c0.3,0.5,0.6,1,0.8,1.5
		c0.3,0.6,0.6,1.1,0.9,1.7c0.5,0.8,0.9,1.6,1.4,2.5c0.3,0.5,0.6,1,0.9,1.6c0.3,0.5,0.6,1,0.9,1.6c0.2,0.4,0.4,0.7,0.6,1
		c0.2,0.3,0.4,0.6,0.6,0.9c0.1,0.1,0.2,0.3,0.3,0.4c0.4,0.5,0.7,1,1.1,1.6c0.3,0.4,0.6,0.8,0.9,1.2c0.5,0.6,1,1.1,1.6,1.5
		c0.5,0.4,1.1,0.7,1.8,0.9c0.3,0.1,0.7,0.1,1,0.1c0.4,0,0.7,0,1.1-0.1c0.7-0.1,1.4-0.4,2-0.7c0.7-0.4,1.3-0.9,1.9-1.4
		c0.5-0.4,0.9-0.9,1.3-1.4c0.2-0.2,0.4-0.5,0.5-0.7c0.1-0.1,0.1-0.2,0.2-0.2c0.1-0.1,0.1-0.2,0.1-0.3c0-0.1,0.1-0.3,0.1-0.4
		c0-0.2,0-0.3-0.1-0.4c-0.1-0.1-0.2-0.2-0.3-0.3c-0.1-0.1-0.3-0.1-0.4-0.1c-0.2,0-0.5,0.1-0.6,0.2c-0.1,0.1-0.2,0.2-0.3,0.4
		c-0.1,0.1-0.1,0.2-0.2,0.3c-0.1,0.1-0.2,0.3-0.3,0.4c-0.2,0.2-0.4,0.4-0.6,0.7c-0.2,0.2-0.3,0.3-0.5,0.5c-0.3,0.3-0.6,0.6-0.9,0.8
		c-0.4,0.3-0.8,0.5-1.2,0.7c-0.4,0.1-0.8,0.3-1.2,0.3c-0.3,0-0.5,0-0.8,0c-0.3,0-0.5-0.1-0.8-0.2c-0.3-0.2-0.6-0.4-0.9-0.6
		c-0.6-0.5-1.1-1.1-1.6-1.7c-0.4-0.5-0.7-1-1.1-1.5c-0.3-0.4-0.5-0.8-0.8-1.2c-0.3-0.4-0.5-0.8-0.8-1.2c-0.3-0.6-0.7-1.2-1-1.7
		c-0.2-0.4-0.5-0.9-0.7-1.3c-0.2-0.4-0.4-0.8-0.6-1.2c-0.6-1.1-1.2-2.1-1.7-3.2c-0.3-0.6-0.6-1.1-0.9-1.7c-0.3-0.6-0.7-1.1-1-1.7
		c-0.3-0.4-0.5-0.9-0.8-1.3c-0.3-0.4-0.6-0.8-0.9-1.1c-0.3-0.4-0.6-0.7-0.9-1c-0.4-0.4-0.9-0.7-1.4-1c0.7-0.6,1.4-1.2,2-1.9
		c0.4-0.5,0.8-1.1,1.2-1.7c0.4-0.7,0.6-1.4,0.8-2.2c0.1-0.4,0.1-0.7,0.1-1.1c0-0.4-0.1-0.7-0.1-1.1c-0.1-0.3-0.2-0.7-0.4-0.9
		c-0.1-0.2-0.2-0.3-0.3-0.4c-0.1-0.2-0.3-0.3-0.4-0.4c-0.1-0.1-0.3-0.2-0.4-0.3c-0.2-0.1-0.3-0.1-0.5-0.2c-0.3-0.1-0.7-0.2-1-0.2
		c-0.1,0-0.2,0-0.4,0C75.9,0,75.7,0,75.5,0L75.5,0L75.5,0z M55.7,3.8c0.2,0,0.4,0.1,0.6,0.2c0.2,0.1,0.4,0.2,0.6,0.4
		c0.3,0.2,0.5,0.5,0.8,0.8c0.1,0.2,0.3,0.4,0.4,0.7c0.2,0.4,0.3,0.8,0.3,1.2c-0.1,0-0.1,0-0.2,0c-0.4,0-0.8,0-1.2,0
		c-0.5-0.1-1-0.2-1.5-0.4c-0.2-0.1-0.4-0.2-0.6-0.4c-0.1-0.1-0.3-0.2-0.4-0.4c-0.1-0.1-0.2-0.3-0.3-0.5c-0.1-0.2-0.1-0.3-0.1-0.5
		c0,0,0-0.1,0-0.1c0-0.1,0-0.2,0.1-0.3c0-0.1,0.1-0.1,0.1-0.2c0-0.1,0.1-0.1,0.2-0.2c0.1-0.1,0.2-0.1,0.2-0.1c0.1,0,0.3-0.1,0.4-0.1
		C55.3,3.8,55.5,3.8,55.7,3.8L55.7,3.8L55.7,3.8z M6.6,6.7c0.1,0,0.2,0,0.3,0.1c-0.1,0.7-0.1,1.4-0.1,2c0,0.3-0.1,0.7-0.1,1
		c0,0.3-0.1,0.7-0.1,1c-0.1,0.5-0.1,0.9-0.2,1.4c0,0.2-0.1,0.4-0.1,0.6c-0.1,0.3-0.1,0.6-0.2,1c0,0.1-0.1,0.3-0.1,0.4
		c-0.1,0.3-0.2,0.7-0.3,1c-0.2,0.9-0.5,1.9-0.9,2.7c-0.2,0.5-0.4,0.9-0.7,1.3c-0.1,0.1-0.2,0.3-0.4,0.4c-0.1,0.1-0.2,0.1-0.3,0.2
		c-0.1,0-0.2,0-0.2,0.1c0,0,0,0,0,0c0,0,0,0,0,0c0,0,0,0,0,0c-0.1-0.1-0.3-0.3-0.4-0.4c-0.2-0.3-0.4-0.6-0.6-0.9
		c-0.2-0.5-0.3-0.9-0.4-1.4c-0.1-1-0.1-2.1,0-3.1c0.1-0.6,0.2-1.2,0.3-1.7c0.1-0.6,0.3-1.1,0.6-1.7c0.2-0.5,0.4-0.9,0.7-1.3
		C3.6,9,3.8,8.6,4.1,8.2c0.3-0.3,0.6-0.7,0.9-0.9c0.2-0.2,0.5-0.3,0.7-0.4C6,6.8,6.1,6.7,6.3,6.7C6.4,6.7,6.5,6.7,6.6,6.7L6.6,6.7
		L6.6,6.7z M34.2,7.2C34.2,7.2,34.3,7.2,34.2,7.2C34.3,7.2,34.2,7.2,34.2,7.2L34.2,7.2L34.2,7.2z M73.5,11.9
		C73.5,11.9,73.4,11.9,73.5,11.9C73.4,11.9,73.5,11.9,73.5,11.9L73.5,11.9L73.5,11.9z M49.6,12.2C49.6,12.2,49.6,12.2,49.6,12.2
		L49.6,12.2C49.6,12.2,49.6,12.2,49.6,12.2L49.6,12.2L49.6,12.2z M49.8,12.4C49.8,12.4,49.8,12.5,49.8,12.4
		C49.8,12.5,49.8,12.4,49.8,12.4L49.8,12.4L49.8,12.4L49.8,12.4z M37.7,13.3C37.8,13.3,37.8,13.3,37.7,13.3
		C37.8,13.3,37.8,13.3,37.7,13.3L37.7,13.3L37.7,13.3L37.7,13.3z M37.9,13.3C37.9,13.3,37.9,13.3,37.9,13.3
		C37.9,13.3,37.9,13.3,37.9,13.3L37.9,13.3L37.9,13.3z M3.3,19.9C3.3,19.9,3.3,19.9,3.3,19.9C3.3,19.9,3.3,19.9,3.3,19.9L3.3,19.9
		L3.3,19.9z M3.2,20C3.2,20,3.2,20,3.2,20C3.2,20,3.2,20,3.2,20L3.2,20L3.2,20z"/>
</g>
</svg>
